<svg width="240" height="47" viewBox="0 0 240 47" fill="none" xmlns="http://www.w3.org/2000/svg">
<path d="M0 15.7168V24.1588C3.005 24.1568 5.98092 24.7236 8.75748 25.8269C11.534 26.9302 14.0567 28.5482 16.1812 30.5884C18.3052 32.6279 19.9896 35.0492 21.1382 37.714C22.2868 40.3789 22.8769 43.2349 22.875 46.1188H31.6625C31.6546 38.0591 28.3163 30.3315 22.3804 24.6319C16.4444 18.9322 8.39555 15.726 0 15.7168H0Z" fill="white"/>
<path d="M43.9463 0.519531H30.02C37.065 4.80549 43.0345 10.5353 47.5 17.2979V3.92873C47.4994 3.02433 47.1247 2.1572 46.4583 1.51792C45.7919 0.878636 44.8884 0.519531 43.9463 0.519531Z" fill="white"/>
<path d="M8.75 0.519531H0V8.12033C10.4947 8.13081 20.5564 12.1376 27.9774 19.2615C35.3984 26.3855 39.5725 36.0446 39.5837 46.1195H47.5V37.7195C45.7102 28.4874 41.05 19.992 34.1331 13.3517C27.2162 6.7115 18.3668 2.23778 8.75 0.519531Z" fill="white"/>
<path d="M69.0388 5.53906H63.4613V32.5271H69.0388V5.53906Z" fill="white"/>
<path d="M89.5462 17.2316C88.6177 16.4213 87.5308 15.7961 86.3487 15.392C83.8093 14.536 81.0419 14.536 78.5025 15.392C77.3198 15.7958 76.2325 16.4211 75.3037 17.2316C74.3928 18.0378 73.6651 19.0158 73.1662 20.1044C72.6505 21.292 72.385 22.566 72.385 23.8526C72.385 25.1393 72.6505 26.4132 73.1662 27.6008C73.6633 28.6926 74.3911 29.6733 75.3037 30.4808C76.2309 31.292 77.3176 31.917 78.5 32.3192C81.0391 33.1768 83.8071 33.1768 86.3462 32.3192C87.529 31.917 88.6161 31.292 89.5437 30.4808C90.4559 29.673 91.1837 28.6923 91.6812 27.6008C92.1969 26.4132 92.4624 25.1393 92.4624 23.8526C92.4624 22.566 92.1969 21.292 91.6812 20.1044C91.1827 19.0162 90.4559 18.0382 89.5462 17.2316ZM85.7162 27.0308C84.813 27.8119 83.6405 28.2441 82.425 28.2441C81.2094 28.2441 80.0369 27.8119 79.1337 27.0308C78.3746 26.1312 77.9604 25.0086 77.9604 23.8508C77.9604 22.6931 78.3746 21.5704 79.1337 20.6708C80.0369 19.8898 81.2094 19.4576 82.425 19.4576C83.6405 19.4576 84.813 19.8898 85.7162 20.6708C86.4753 21.5704 86.8895 22.6931 86.8895 23.8508C86.8895 25.0086 86.4753 26.1312 85.7162 27.0308Z" fill="white"/>
<path d="M109.57 17.4643H109.5C109.242 17.1166 108.943 16.7993 108.608 16.5187C108.202 16.174 107.752 15.8797 107.27 15.6427C106.051 15.0422 104.698 14.7361 103.328 14.7511C102.127 14.7309 100.939 14.9946 99.8701 15.5191C98.8736 16.0144 97.9937 16.701 97.2851 17.5363C96.5624 18.3972 96.008 19.3766 95.6488 20.4271C95.2668 21.5093 95.0721 22.6444 95.0726 23.7871C95.0584 25.0137 95.2727 26.2328 95.7051 27.3871C96.0968 28.4404 96.7075 29.4064 97.5001 30.2263C98.2896 31.0286 99.2479 31.6606 100.311 32.0803C101.467 32.5327 102.707 32.7571 103.955 32.7403C104.878 32.725 105.791 32.5498 106.65 32.2231C107.613 31.8725 108.447 31.2578 109.049 30.4555H109.124V32.1355C109.145 32.6958 109.049 33.2545 108.841 33.7786C108.633 34.3027 108.319 34.7816 107.915 35.1871C107.403 35.6219 106.805 35.9524 106.156 36.1587C105.507 36.365 104.821 36.4427 104.14 36.3871C103.06 36.3987 101.99 36.1918 100.999 35.7799C100.013 35.3569 99.0927 34.8044 98.2651 34.1383L95.1788 38.5603C96.4403 39.5357 97.9149 40.2252 99.4926 40.5775C101.054 40.9221 102.651 41.0956 104.253 41.0947C107.773 41.0947 110.394 40.2439 112.116 38.5423C113.839 36.8407 114.7 34.3479 114.701 31.0639V15.1795H109.576L109.57 17.4643ZM109.235 25.3711C109.015 25.8791 108.693 26.3403 108.286 26.7283C107.873 27.124 107.388 27.4443 106.855 27.6739C106.302 27.9097 105.703 28.0315 105.098 28.0315C104.493 28.0315 103.894 27.9097 103.341 27.6739C102.816 27.4411 102.337 27.121 101.928 26.7283C101.52 26.337 101.196 25.8723 100.975 25.3609C100.754 24.8494 100.64 24.3012 100.64 23.7475C100.64 23.1938 100.754 22.6456 100.975 22.1341C101.196 21.6226 101.52 21.158 101.928 20.7667C102.337 20.374 102.816 20.0535 103.341 19.8199C103.895 19.5849 104.493 19.4635 105.098 19.4635C105.703 19.4635 106.302 19.5849 106.855 19.8199C107.388 20.0503 107.872 20.371 108.286 20.7667C108.9 21.3587 109.317 22.1118 109.486 22.9311C109.655 23.7504 109.568 24.5993 109.235 25.3711Z" fill="white"/>
<path d="M135.655 17.2316C134.726 16.4213 133.64 15.7961 132.457 15.392C129.918 14.536 127.151 14.536 124.611 15.392C123.429 15.7958 122.341 16.4211 121.412 17.2316C120.502 18.0378 119.774 19.0158 119.275 20.1044C118.759 21.292 118.494 22.566 118.494 23.8526C118.494 25.1393 118.759 26.4132 119.275 27.6008C119.772 28.6926 120.5 29.6733 121.412 30.4808C122.34 31.2922 123.428 31.9173 124.611 32.3192C127.15 33.1768 129.918 33.1768 132.457 32.3192C133.64 31.917 134.727 31.292 135.655 30.4808C136.568 29.6733 137.295 28.6926 137.792 27.6008C138.308 26.4132 138.574 25.1393 138.574 23.8526C138.574 22.566 138.308 21.292 137.792 20.1044C137.294 19.0158 136.566 18.0378 135.655 17.2316ZM131.825 27.0308C130.922 27.8119 129.749 28.2441 128.534 28.2441C127.318 28.2441 126.146 27.8119 125.242 27.0308C124.483 26.1312 124.069 25.0086 124.069 23.8508C124.069 22.6931 124.483 21.5704 125.242 20.6708C126.146 19.8898 127.318 19.4576 128.534 19.4576C129.749 19.4576 130.922 19.8898 131.825 20.6708C132.584 21.5704 132.998 22.6931 132.998 23.8508C132.998 25.0086 132.584 26.1312 131.825 27.0308Z" fill="white"/>
<path d="M145.972 15.2988H142.981V32.5272H145.972V15.2988Z" fill="white"/>
<path d="M144.477 6.46522C144.187 6.45993 143.899 6.5128 143.632 6.62046C143.364 6.72811 143.123 6.88818 142.924 7.09042C142.62 7.38479 142.413 7.759 142.33 8.16589C142.247 8.57278 142.291 8.99413 142.458 9.37685C142.624 9.75958 142.904 10.0865 143.263 10.3165C143.623 10.5465 144.045 10.6692 144.477 10.6692C144.909 10.6692 145.331 10.5465 145.69 10.3165C146.05 10.0865 146.33 9.75958 146.496 9.37685C146.662 8.99413 146.707 8.57278 146.624 8.16589C146.541 7.759 146.334 7.38479 146.03 7.09042C145.831 6.88809 145.59 6.72796 145.323 6.62029C145.055 6.51262 144.767 6.45981 144.477 6.46522Z" fill="white"/>
<path d="M168.099 17.4396C167.257 16.6149 166.245 15.9686 165.127 15.5424C163.901 15.0783 162.592 14.8472 161.274 14.862C160.032 14.8483 158.804 15.1134 157.687 15.636C156.588 16.1609 155.615 16.9002 154.83 17.8068H154.75V15.2988H151.762V40.9212H154.75V29.4732H154.826C155.461 30.5231 156.387 31.3837 157.5 31.9596C158.792 32.6543 160.255 33.004 161.736 32.9724C162.949 32.9798 164.15 32.7478 165.265 32.2908C166.342 31.8523 167.314 31.2071 168.121 30.3948C168.941 29.5646 169.586 28.5899 170.02 27.5244C170.94 25.1999 170.94 22.6321 170.02 20.3076C169.582 19.2396 168.929 18.2651 168.099 17.4396ZM167.044 26.4396C166.765 27.1897 166.329 27.877 165.762 28.4589C165.196 29.0407 164.511 29.5048 163.75 29.8224C162.068 30.4838 160.182 30.4838 158.5 29.8224C157.738 29.5048 157.052 29.0403 156.485 28.4578C155.918 27.8753 155.481 27.1871 155.202 26.436C154.615 24.8033 154.615 23.0287 155.202 21.396C155.481 20.6449 155.918 19.9567 156.485 19.3742C157.052 18.7917 157.738 18.3272 158.5 18.0096C160.182 17.3482 162.068 17.3482 163.75 18.0096C164.512 18.3272 165.198 18.7917 165.765 19.3742C166.332 19.9567 166.769 20.6449 167.047 21.396C167.635 23.0287 167.635 24.8033 167.047 26.436L167.044 26.4396Z" fill="white"/>
<path d="M185.777 23.92C185.209 23.512 184.576 23.1951 183.902 22.9816C183.163 22.742 182.407 22.5512 181.64 22.4104C181.065 22.3161 180.496 22.1935 179.934 22.0432C179.433 21.9126 178.945 21.74 178.476 21.5272C178.101 21.3636 177.761 21.1322 177.476 20.8456C177.234 20.5893 177.104 20.2533 177.112 19.9072C177.107 19.5338 177.22 19.1676 177.439 18.8584C177.654 18.553 177.935 18.2955 178.262 18.1036C178.613 17.9 178.996 17.751 179.395 17.662C179.804 17.5648 180.224 17.5153 180.645 17.5144C181.447 17.4905 182.239 17.6888 182.926 18.0856C183.547 18.4605 184.066 18.9713 184.441 19.576L186.934 17.9932C186.381 16.947 185.485 16.1054 184.382 15.5992C183.272 15.1041 182.061 14.8528 180.836 14.8636C180.006 14.8617 179.18 14.9732 178.382 15.1948C177.618 15.4041 176.893 15.7281 176.234 16.1548C175.603 16.5633 175.079 17.1047 174.7 17.7376C174.308 18.4116 174.109 19.1737 174.125 19.9456C174.094 20.7012 174.272 21.4513 174.642 22.1188C174.98 22.6771 175.451 23.1502 176.017 23.4988C176.642 23.8771 177.32 24.1684 178.03 24.364C178.797 24.5848 179.603 24.7812 180.446 24.9532C180.933 25.0516 181.406 25.162 181.865 25.2844C182.296 25.3954 182.709 25.5625 183.092 25.7812C183.431 25.9738 183.724 26.2306 183.955 26.536C184.185 26.8743 184.299 27.2734 184.281 27.6772C184.295 28.1015 184.175 28.5198 183.936 28.8772C183.698 29.216 183.384 29.499 183.016 29.7052C182.619 29.9327 182.184 30.095 181.731 30.1852C181.271 30.2822 180.802 30.3317 180.331 30.3328C179.399 30.3674 178.476 30.1504 177.666 29.7064C176.921 29.2513 176.266 28.6737 175.73 28L173.355 29.7676C174.09 30.8637 175.134 31.7374 176.365 32.2876C177.627 32.7684 178.977 33.0002 180.334 32.9692C181.218 32.9699 182.099 32.8712 182.959 32.6752C183.777 32.4936 184.556 32.176 185.26 31.7368C185.933 31.3082 186.489 30.7324 186.885 30.0568C187.314 29.2901 187.526 28.4285 187.5 27.5584C187.524 26.8103 187.367 26.0671 187.04 25.3876C186.743 24.8115 186.311 24.3092 185.777 23.92Z" fill="white"/>
<path d="M207.327 28.4412V15.2988H204.336V23.6988C204.346 24.6044 204.236 25.5076 204.01 26.3868C203.818 27.1406 203.479 27.8524 203.01 28.4844C202.565 29.072 201.97 29.5408 201.284 29.8464C200.494 30.1831 199.636 30.3471 198.773 30.3264C198.188 30.3718 197.601 30.2818 197.061 30.064C196.52 29.8462 196.042 29.5069 195.666 29.0748C194.948 28.0712 194.596 26.8672 194.666 25.6512V15.2988H191.675V25.938C191.666 26.9024 191.801 27.8631 192.078 28.7904C192.318 29.6125 192.745 30.3735 193.328 31.0188C193.911 31.6497 194.638 32.1426 195.452 32.4588C196.423 32.8225 197.459 32.9979 198.501 32.9748C199.202 32.9803 199.9 32.8869 200.572 32.6976C201.179 32.5279 201.76 32.2805 202.297 31.962C202.787 31.6727 203.232 31.3198 203.62 30.9132C203.969 30.5515 204.26 30.1418 204.484 29.6976H204.56C204.56 30.1896 204.573 30.6696 204.599 31.1376C204.625 31.6056 204.637 32.072 204.636 32.5368H207.475C207.475 31.9712 207.449 31.3452 207.397 30.6588C207.346 29.9724 207.322 29.2332 207.327 28.4412Z" fill="white"/>
<path d="M239.655 19.0737C239.455 18.2401 239.062 17.4606 238.504 16.7937C237.941 16.1484 237.215 15.6526 236.395 15.3537C235.363 14.9962 234.27 14.8276 233.174 14.8569C231.983 14.807 230.805 15.1089 229.799 15.7221C228.866 16.3644 228.083 17.1858 227.499 18.1341C227.345 17.8389 227.147 17.5013 226.904 17.1213C226.633 16.711 226.289 16.3495 225.888 16.0533C225.395 15.6937 224.846 15.4103 224.263 15.2133C223.478 14.9601 222.653 14.8415 221.826 14.8629C221.126 14.8573 220.428 14.9508 219.756 15.1401C219.149 15.3098 218.568 15.5572 218.03 15.8757C217.541 16.1654 217.096 16.5183 216.707 16.9245C216.359 17.2862 216.068 17.6959 215.845 18.1401H215.768C215.768 17.6481 215.755 17.1705 215.73 16.7001C215.705 16.2297 215.691 15.7677 215.691 15.3009H212.854C212.854 15.8665 212.879 16.4925 212.93 17.1789C212.981 17.8653 213.006 18.6017 213.006 19.3881V32.5293H216V24.1365C215.99 23.2305 216.1 22.3269 216.326 21.4473C216.517 20.6933 216.857 19.9813 217.326 19.3497C217.771 18.7619 218.365 18.2931 219.051 17.9877C219.841 17.6508 220.7 17.4868 221.564 17.5077C222.076 17.4657 222.59 17.5546 223.055 17.7654C223.519 17.9762 223.917 18.3013 224.209 18.7077C224.851 19.9703 225.129 21.3749 225.015 22.7757V32.5317H228V22.5885C227.991 21.8799 228.115 21.1756 228.365 20.5089C228.587 19.9179 228.926 19.3741 229.365 18.9081C229.779 18.4718 230.281 18.1211 230.841 17.8773C231.407 17.6312 232.022 17.5056 232.644 17.5089C233.382 17.4831 234.117 17.6215 234.791 17.9133C235.322 18.1596 235.783 18.5267 236.132 18.9825C236.47 19.4338 236.705 19.9475 236.824 20.4909C236.952 21.0595 237.016 21.6396 237.015 22.2213V32.5293H240V22.0737C240.011 21.064 239.895 20.0567 239.655 19.0737Z" fill="white"/>
</svg>
